ISO-10303-21;
HEADER;
FILE_DESCRIPTION (( 'STEP AP203' ),
    '1' );
FILE_NAME ('·ÅÑù¶àÍ¹Ì¨step.STEP',
    '2026-09-20T04:01:03',
    ( '' ),
    ( '' ),
    'SwSTEP 2.0',
    'SolidWorks 2024',
    '' );
FILE_SCHEMA (( 'CONFIG_CONTROL_DESIGN' ));
ENDSEC;

DATA;
#1 = VERTEX_POINT ( 'NONE', #307 ) ;
#2 = ORIENTED_EDGE ( 'NONE', *, *, #195, .F. ) ;
#3 = ADVANCED_FACE ( 'NONE', ( #147 ), #56, .F. ) ;
#4 = DATE_AND_TIME ( #159, #538 ) ;
#5 = LINE ( 'NONE', #264, #505 ) ;
#6 = EDGE_LOOP ( 'NONE', ( #235, #300, #486, #330 ) ) ;
#7 = PERSON_AND_ORGANIZATION ( #211, #80 ) ;
#8 = VECTOR ( 'NONE', #339, 1000.000000000000000 ) ;
#9 = DIRECTION ( 'NONE',  ( 1.000000000000000000, -0.000000000000000000, 0.000000000000000000 ) ) ;
#10 = VERTEX_POINT ( 'NONE', #450 ) ;
#11 = PERSON_AND_ORGANIZATION_ROLE ( 'classification_officer' ) ;
#12 = CARTESIAN_POINT ( 'NONE',  ( 14.99999999999999645, 60.00000000000000000, -14.99999999999999822 ) ) ;
#13 = EDGE_CURVE ( 'NONE', #1, #360, #462, .T. ) ;
#14 = LINE ( 'NONE', #368, #587 ) ;
#15 = FACE_OUTER_BOUND ( 'NONE', #297, .T. ) ;
#16 = CC_DESIGN_PERSON_AND_ORGANIZATION_ASSIGNMENT ( #7, #456, ( #336 ) ) ;
#17 = DIRECTION ( 'NONE',  ( -1.000000000000000000, -0.000000000000000000, -0.000000000000000000 ) ) ;
#18 = ORIENTED_EDGE ( 'NONE', *, *, #309, .F. ) ;
#19 = DIRECTION ( 'NONE',  ( 1.000000000000000000, 0.000000000000000000, -0.000000000000000000 ) ) ;
#20 = PLANE ( 'NONE',  #521 ) ;
#21 = VERTEX_POINT ( 'NONE', #649 ) ;
#22 = CARTESIAN_POINT ( 'NONE',  ( 45.00000000000000711, 0.000000000000000000, 44.99999999999999289 ) ) ;
#23 = DIRECTION ( 'NONE',  ( 0.000000000000000000, -0.7071067811865476838, 0.7071067811865474617 ) ) ;
#24 = VERTEX_POINT ( 'NONE', #249 ) ;
#25 = ADVANCED_FACE ( 'NONE', ( #105 ), #506, .F. ) ;
#26 = CARTESIAN_POINT ( 'NONE',  ( -52.49999999999998579, 52.49999999999997158, 0.000000000000000000 ) ) ;
#27 = CARTESIAN_POINT ( 'NONE',  ( -44.99999999999998579, 60.00000000000000000, -14.99999999999999822 ) ) ;
#28 = ORIENTED_EDGE ( 'NONE', *, *, #522, .F. ) ;
#29 = APPROVAL_PERSON_ORGANIZATION ( #552, #87, #461 ) ;
#30 = LINE ( 'NONE', #520, #34 ) ;
#31 = VECTOR ( 'NONE', #533, 1000.000000000000000 ) ;
#32 = B_SPLINE_CURVE_WITH_KNOTS ( 'NONE', 3,
 ( #196, #355, #553, #305 ),
 .UNSPECIFIED., .F., .F.,
 ( 4, 4 ),
 ( 0.000000000000000000, 1.000000000000000000 ),
 .UNSPECIFIED. ) ;
#33 = CARTESIAN_POINT ( 'NONE',  ( 14.99999999999999645, 90.00000000000000000, 15.00000000000000178 ) ) ;
#34 = VECTOR ( 'NONE', #68, 1000.000000000000227 ) ;
#35 = VECTOR ( 'NONE', #17, 1000.000000000000000 ) ;
#36 = ORIENTED_EDGE ( 'NONE', *, *, #612, .T. ) ;
#37 =( NAMED_UNIT ( * ) SI_UNIT ( $, .STERADIAN. ) SOLID_ANGLE_UNIT ( ) );
#38 = EDGE_CURVE ( 'NONE', #1, #310, #603, .T. ) ;
#39 = DIRECTION ( 'NONE',  ( 0.4472135954999578167, 0.8944271909999158554, 0.000000000000000000 ) ) ;
#40 = EDGE_LOOP ( 'NONE', ( #18, #127, #611 ) ) ;
#41 = CARTESIAN_POINT ( 'NONE',  ( -15.00000000000000355, 90.00000000000000000, 15.00000000000000178 ) ) ;
#42 = DIRECTION ( 'NONE',  ( 0.000000000000000000, 0.7071067811865474617, 0.7071067811865475727 ) ) ;
#43 = EDGE_LOOP ( 'NONE', ( #460, #638, #155 ) ) ;
#44 = ORIENTED_EDGE ( 'NONE', *, *, #522, .T. ) ;
#45 = ORIENTED_EDGE ( 'NONE', *, *, #365, .F. ) ;
#46 =( LENGTH_UNIT ( ) NAMED_UNIT ( * ) SI_UNIT ( .MILLI., .METRE. ) );
#47 = EDGE_CURVE ( 'NONE', #635, #489, #535, .T. ) ;
#48 = ORIENTED_EDGE ( 'NONE', *, *, #475, .T. ) ;
#49 = VECTOR ( 'NONE', #51, 1000.000000000000000 ) ;
#50 = ORIENTED_EDGE ( 'NONE', *, *, #258, .F. ) ;
#51 = DIRECTION ( 'NONE',  ( 0.7071067811865474617, 0.7071067811865476838, -0.000000000000000000 ) ) ;
#52 = EDGE_CURVE ( 'NONE', #489, #433, #32, .T. ) ;
#53 = EDGE_LOOP ( 'NONE', ( #276, #79, #108 ) ) ;
#54 = DATE_AND_TIME ( #206, #251 ) ;
#55 = CARTESIAN_POINT ( 'NONE',  ( 14.99999999999999645, 60.00000000000000000, 45.00000000000000711 ) ) ;
#56 = PLANE ( 'NONE',  #84 ) ;
#57 = CALENDAR_DATE ( 2026, 20, 9 ) ;
#58 = CARTESIAN_POINT ( 'NONE',  ( -34.99999999999999289, 60.00000000000000000, -15.00000000000000711 ) ) ;
#59 = AXIS2_PLACEMENT_3D ( 'NONE', #78, #443, #172 ) ;
#60 = EDGE_CURVE ( 'NONE', #447, #24, #148, .T. ) ;
#61 = DIRECTION ( 'NONE',  ( 0.4472135954999579832, -0.8944271909999157444, -2.068778461039393854E-16 ) ) ;
#62 =( GEOMETRIC_REPRESENTATION_CONTEXT ( 3 ) GLOBAL_UNCERTAINTY_ASSIGNED_CONTEXT ( ( #223 ) ) GLOBAL_UNIT_ASSIGNED_CONTEXT ( ( #46, #487, #37 ) ) REPRESENTATION_CONTEXT ( 'NONE', 'WORKASPACE' ) );
#63 = CARTESIAN_POINT ( 'NONE',  ( 24.99999999999999645, 60.00000000000000711, 15.00000000000001599 ) ) ;
#64 = CARTESIAN_POINT ( 'NONE',  ( 14.99999999999999645, 60.00000000000000000, -14.99999999999999822 ) ) ;
#65 = CC_DESIGN_PERSON_AND_ORGANIZATION_ASSIGNMENT ( #149, #11, ( #274 ) ) ;
#66 = PLANE ( 'NONE',  #470 ) ;
#67 = ORIENTED_EDGE ( 'NONE', *, *, #292, .T. ) ;
#68 = DIRECTION ( 'NONE',  ( 0.000000000000000000, -0.8944271909999158554, 0.4472135954999578167 ) ) ;
#69 = CARTESIAN_POINT ( 'NONE',  ( 14.99999999999999645, 60.00000000000000000, -14.99999999999999822 ) ) ;
#70 = VERTEX_POINT ( 'NONE', #454 ) ;
#71 = DIRECTION ( 'NONE',  ( 1.000000000000000000, 0.000000000000000000, -0.000000000000000000 ) ) ;
#72 = DIRECTION ( 'NONE',  ( -0.4472135954999578167, -0.8944271909999159664, 0.000000000000000000 ) ) ;
#73 = ADVANCED_FACE ( 'NONE', ( #613 ), #477, .F. ) ;
#74 = PLANE ( 'NONE',  #125 ) ;
#75 = DIRECTION ( 'NONE',  ( 0.8944271909999159664, -0.4472135954999578722, 0.000000000000000000 ) ) ;
#76 = ORIENTED_EDGE ( 'NONE', *, *, #449, .T. ) ;
#77 = PLANE ( 'NONE',  #580 ) ;
#78 = CARTESIAN_POINT ( 'NONE',  ( 0.000000000000000000, 90.00000000000000000, 0.000000000000000000 ) ) ;
#79 = ORIENTED_EDGE ( 'NONE', *, *, #52, .T. ) ;
#80 = ORGANIZATION ( 'æœª', 'æœª', '' ) ;
#81 = PLANE ( 'NONE',  #299 ) ;
#82 = EDGE_CURVE ( 'NONE', #1, #492, #236, .T. ) ;
#83 = DIRECTION ( 'NONE',  ( 0.000000000000000000, 0.7071067811865475727, -0.7071067811865474617 ) ) ;
#84 = AXIS2_PLACEMENT_3D ( 'NONE', #100, #559, #104 ) ;
#85 = EDGE_LOOP ( 'NONE', ( #540, #494, #391 ) ) ;
#86 = FACE_OUTER_BOUND ( 'NONE', #167, .T. ) ;
#87 = APPROVAL ( #463, 'æœª' ) ;
#88 = CARTESIAN_POINT ( 'NONE',  ( 14.99999999999999645, 52.50000000000000711, -52.50000000000000000 ) ) ;
#89 = ORIENTED_EDGE ( 'NONE', *, *, #60, .F. ) ;
#90 = LINE ( 'NONE', #598, #381 ) ;
#91 = CARTESIAN_POINT ( 'NONE',  ( 14.99999999999999645, 60.00000000000000000, -14.99999999999999822 ) ) ;
#92 = ORIENTED_EDGE ( 'NONE', *, *, #103, .T. ) ;
#93 = AXIS2_PLACEMENT_3D ( 'NONE', #288, #295, #142 ) ;
#94 = ORIENTED_EDGE ( 'NONE', *, *, #151, .T. ) ;
#95 = EDGE_CURVE ( 'NONE', #547, #21, #386, .T. ) ;
#96 = DIRECTION ( 'NONE',  ( 0.000000000000000000, -0.7071067811865474617, -0.7071067811865475727 ) ) ;
#97 = B_SPLINE_CURVE_WITH_KNOTS ( 'NONE', 3,
 ( #650, #181, #343, #549 ),
 .UNSPECIFIED., .F., .F.,
 ( 4, 4 ),
 ( 0.000000000000000000, 1.000000000000000000 ),
 .UNSPECIFIED. ) ;
#98 = CARTESIAN_POINT ( 'NONE',  ( -15.00000000000001066, 60.00000000000001421, 25.00000000000000711 ) ) ;
#99 = AXIS2_PLACEMENT_3D ( 'NONE', #166, #565, #314 ) ;
#100 = CARTESIAN_POINT ( 'NONE',  ( 14.99999999999999645, 60.00000000000000000, 15.00000000000000178 ) ) ;
#101 = COORDINATED_UNIVERSAL_TIME_OFFSET ( 8, 0, .AHEAD. ) ;
#102 = LINE ( 'NONE', #507, #49 ) ;
#103 = EDGE_CURVE ( 'NONE', #246, #360, #414, .T. ) ;
#104 = DIRECTION ( 'NONE',  ( -1.000000000000000000, 0.000000000000000000, -0.000000000000000000 ) ) ;
#105 = FACE_OUTER_BOUND ( 'NONE', #608, .T. ) ;
#106 = DIRECTION ( 'NONE',  ( 0.4472135954999580387, -0.8944271909999157444, 0.000000000000000000 ) ) ;
#107 = ADVANCED_FACE ( 'NONE', ( #575 ), #66, .F. ) ;
#108 = ORIENTED_EDGE ( 'NONE', *, *, #195, .T. ) ;
#109 = SHAPE_DEFINITION_REPRESENTATION ( #508, #247 ) ;
#110 = LOCAL_TIME ( 12, 1, 3.000000000000000000, #101 ) ;
#111 = DIRECTION ( 'NONE',  ( -0.000000000000000000, 0.000000000000000000, 1.000000000000000000 ) ) ;
#112 = ADVANCED_FACE ( 'NONE', ( #163 ), #625, .T. ) ;
#113 = VECTOR ( 'NONE', #541, 1000.000000000000000 ) ;
#114 = CARTESIAN_POINT ( 'NONE',  ( 14.99999999999999645, 60.00000000000000000, -45.00000000000002842 ) ) ;
#115 = ORIENTED_EDGE ( 'NONE', *, *, #151, .F. ) ;
#116 = CARTESIAN_POINT ( 'NONE',  ( -15.00000000000000355, 60.00000000000000000, 15.00000000000000178 ) ) ;
#117 = CARTESIAN_POINT ( 'NONE',  ( -15.00000000000000355, 60.00000000000000000, -14.99999999999999822 ) ) ;
#118 = ORIENTED_EDGE ( 'NONE', *, *, #584, .T. ) ;
#119 = AXIS2_PLACEMENT_3D ( 'NONE', #278, #111, #562 ) ;
#120 = DIRECTION ( 'NONE',  ( 0.000000000000000000, -0.8944271909999157444, -0.4472135954999579832 ) ) ;
#121 = EDGE_CURVE ( 'NONE', #70, #1, #302, .T. ) ;
#122 = DIRECTION ( 'NONE',  ( -0.000000000000000000, -0.000000000000000000, 1.000000000000000000 ) ) ;
#123 = ORIENTED_EDGE ( 'NONE', *, *, #426, .F. ) ;
#124 = CARTESIAN_POINT ( 'NONE',  ( -15.00000000000000355, 52.49999999999997868, 52.49999999999999289 ) ) ;
#125 = AXIS2_PLACEMENT_3D ( 'NONE', #382, #430, #582 ) ;
#126 = CARTESIAN_POINT ( 'NONE',  ( -15.00000000000000355, 60.00000000000000000, 15.00000000000000178 ) ) ;
#127 = ORIENTED_EDGE ( 'NONE', *, *, #121, .T. ) ;
#128 = LINE ( 'NONE', #279, #174 ) ;
#129 = CARTESIAN_POINT ( 'NONE',  ( 0.000000000000000000, 52.49999999999997868, 52.49999999999999289 ) ) ;
#130 = ORIENTED_EDGE ( 'NONE', *, *, #648, .F. ) ;
#131 = EDGE_CURVE ( 'NONE', #492, #360, #516, .T. ) ;
#132 = CARTESIAN_POINT ( 'NONE',  ( -44.99999999999999289, 6.938893903907228378E-15, 44.99999999999999289 ) ) ;
#133 = CARTESIAN_POINT ( 'NONE',  ( 14.99999999999999645, 52.49999999999997868, 52.49999999999999289 ) ) ;
#134 = ORIENTED_EDGE ( 'NONE', *, *, #648, .T. ) ;
#135 = CC_DESIGN_PERSON_AND_ORGANIZATION_ASSIGNMENT ( #399, #298, ( #479 ) ) ;
#136 = DIRECTION ( 'NONE',  ( 0.4472135954999579832, -0.8944271909999157444, 3.103167691559090904E-16 ) ) ;
#137 = CARTESIAN_POINT ( 'NONE',  ( -35.99999999999999289, 17.99999999999999289, 0.000000000000000000 ) ) ;
#138 = ORIENTED_EDGE ( 'NONE', *, *, #95, .T. ) ;
#139 = CARTESIAN_POINT ( 'NONE',  ( -36.00000000000001421, 18.00000000000000000, 0.000000000000000000 ) ) ;
#140 = DIRECTION ( 'NONE',  ( -0.4082482904638629617, -0.8164965809277261455, 0.4082482904638630172 ) ) ;
#141 = ORIENTED_EDGE ( 'NONE', *, *, #252, .T. ) ;
#142 = DIRECTION ( 'NONE',  ( -0.000000000000000000, 0.000000000000000000, -1.000000000000000000 ) ) ;
#143 = EDGE_LOOP ( 'NONE', ( #230, #548, #115, #429 ) ) ;
#144 = PLANE ( 'NONE',  #633 ) ;
#145 = VECTOR ( 'NONE', #592, 1000.000000000000000 ) ;
#146 = AXIS2_PLACEMENT_3D ( 'NONE', #173, #277, #19 ) ;
#147 = FACE_OUTER_BOUND ( 'NONE', #271, .T. ) ;
#148 = B_SPLINE_CURVE_WITH_KNOTS ( 'NONE', 3,
 ( #198, #404, #63, #323 ),
 .UNSPECIFIED., .F., .F.,
 ( 4, 4 ),
 ( 0.000000000000000000, 1.000000000000000000 ),
 .UNSPECIFIED. ) ;
#149 = PERSON_AND_ORGANIZATION ( #211, #80 ) ;
#150 = ORIENTED_EDGE ( 'NONE', *, *, #556, .T. ) ;
#151 = EDGE_CURVE ( 'NONE', #360, #576, #621, .T. ) ;
#152 = COORDINATED_UNIVERSAL_TIME_OFFSET ( 8, 0, .AHEAD. ) ;
#153 = LINE ( 'NONE', #88, #630 ) ;
#154 = CALENDAR_DATE ( 2026, 20, 9 ) ;
#155 = ORIENTED_EDGE ( 'NONE', *, *, #405, .T. ) ;
#156 = APPROVAL_ROLE ( '' ) ;
#157 = CARTESIAN_POINT ( 'NONE',  ( -44.99999999999999289, -6.938893903907228378E-15, -45.00000000000000711 ) ) ;
#158 = DIRECTION ( 'NONE',  ( -1.000000000000000000, 0.000000000000000000, 0.000000000000000000 ) ) ;
#159 = CALENDAR_DATE ( 2026, 20, 9 ) ;
#160 = ADVANCED_FACE ( 'NONE', ( #474 ), #20, .F. ) ;
#161 = CARTESIAN_POINT ( 'NONE',  ( -44.99999999999999289, 0.000000000000000000, 44.99999999999999289 ) ) ;
#162 = APPROVAL_PERSON_ORGANIZATION ( #653, #419, #156 ) ;
#163 = FACE_OUTER_BOUND ( 'NONE', #183, .T. ) ;
#164 = ORIENTED_EDGE ( 'NONE', *, *, #584, .F. ) ;
#165 = CARTESIAN_POINT ( 'NONE',  ( 45.00000000000002132, 60.00000000000000000, -14.99999999999999822 ) ) ;
#166 = CARTESIAN_POINT ( 'NONE',  ( 0.000000000000000000, 0.000000000000000000, 0.000000000000000000 ) ) ;
#167 = EDGE_LOOP ( 'NONE', ( #557, #345, #384 ) ) ;
#168 = EDGE_CURVE ( 'NONE', #581, #310, #204, .T. ) ;
#169 = DIRECTION ( 'NONE',  ( 0.000000000000000000, -0.4472135954999580387, 0.8944271909999158554 ) ) ;
#170 = CARTESIAN_POINT ( 'NONE',  ( -14.99999999999998579, 60.00000000000001421, -24.99999999999999289 ) ) ;
#171 = DIRECTION ( 'NONE',  ( 0.000000000000000000, 0.000000000000000000, 1.000000000000000000 ) ) ;
#172 = DIRECTION ( 'NONE',  ( 0.000000000000000000, -0.000000000000000000, -1.000000000000000000 ) ) ;
#173 = CARTESIAN_POINT ( 'NONE',  ( -15.00000000000000355, 60.00000000000000000, -14.99999999999999822 ) ) ;
#174 = VECTOR ( 'NONE', #219, 1000.000000000000000 ) ;
#175 = ADVANCED_FACE ( 'NONE', ( #364 ), #326, .T. ) ;
#176 = CARTESIAN_POINT ( 'NONE',  ( -15.00000000000000355, 90.00000000000000000, -14.99999999999999822 ) ) ;
#177 = VERTEX_POINT ( 'NONE', #361 ) ;
#178 = PLANE ( 'NONE',  #400 ) ;
#179 = DIRECTION ( 'NONE',  ( -1.000000000000000000, 0.000000000000000000, -0.000000000000000000 ) ) ;
#180 = ORIENTED_EDGE ( 'NONE', *, *, #309, .T. ) ;
#181 = CARTESIAN_POINT ( 'NONE',  ( 14.99999999999999645, 60.00000000000001421, 25.00000000000000000 ) ) ;
#182 = DIRECTION ( 'NONE',  ( -1.034389230519696927E-16, -0.8944271909999157444, -0.4472135954999579832 ) ) ;
#183 = EDGE_LOOP ( 'NONE', ( #28, #294, #324, #441 ) ) ;
#184 = CARTESIAN_POINT ( 'NONE',  ( 14.99999999999999645, 60.00000000000000000, -45.00000000000002842 ) ) ;
#185 = VECTOR ( 'NONE', #459, 1000.000000000000227 ) ;
#186 = FACE_OUTER_BOUND ( 'NONE', #342, .T. ) ;
#187 = ORIENTED_EDGE ( 'NONE', *, *, #570, .F. ) ;
#188 = ADVANCED_FACE ( 'NONE', ( #261 ), #526, .F. ) ;
#189 = DIRECTION ( 'NONE',  ( -0.8944271909999158554, -0.4472135954999580387, 0.000000000000000000 ) ) ;
#190 = ORIENTED_EDGE ( 'NONE', *, *, #365, .T. ) ;
#191 = LINE ( 'NONE', #442, #113 ) ;
#192 = EDGE_LOOP ( 'NONE', ( #281, #180, #94, #2 ) ) ;
#193 = MECHANICAL_CONTEXT ( 'NONE', #417, 'mechanical' ) ;
#194 = CC_DESIGN_APPROVAL ( #87, ( #651 ) ) ;
#195 = EDGE_CURVE ( 'NONE', #433, #576, #464, .T. ) ;
#196 = CARTESIAN_POINT ( 'NONE',  ( -15.00000000000000355, 60.00000000000000000, 15.00000000000000178 ) ) ;
#197 = PERSON_AND_ORGANIZATION ( #211, #80 ) ;
#198 = CARTESIAN_POINT ( 'NONE',  ( 45.00000000000000711, 60.00000000000000000, 15.00000000000000178 ) ) ;
#199 = EDGE_CURVE ( 'NONE', #177, #246, #14, .T. ) ;
#200 = LINE ( 'NONE', #55, #338 ) ;
#201 = VECTOR ( 'NONE', #467, 1000.000000000000227 ) ;
#202 = ORIENTED_EDGE ( 'NONE', *, *, #217, .T. ) ;
#203 = CARTESIAN_POINT ( 'NONE',  ( 45.00000000000000711, -6.938893903907228378E-15, 44.99999999999999289 ) ) ;
#204 = LINE ( 'NONE', #410, #239 ) ;
#205 = AXIS2_PLACEMENT_3D ( 'NONE', #636, #624, #476 ) ;
#206 = CALENDAR_DATE ( 2026, 20, 9 ) ;
#207 = ADVANCED_FACE ( 'NONE', ( #572 ), #332, .F. ) ;
#208 = CARTESIAN_POINT ( 'NONE',  ( -15.00000000000000355, 60.00000000000000000, -45.00000000000000711 ) ) ;
#209 = APPROVAL_ROLE ( '' ) ;
#210 = DIRECTION ( 'NONE',  ( -0.000000000000000000, 0.000000000000000000, -1.000000000000000000 ) ) ;
#211 = PERSON ( 'æœª', 'æœª', 'æœª', ('æœª'), ('æœª'), ('æœª') ) ;
#212 = CARTESIAN_POINT ( 'NONE',  ( -44.99999999999998579, 60.00000000000000000, -14.99999999999999822 ) ) ;
#213 = VECTOR ( 'NONE', #485, 1000.000000000000000 ) ;
#214 = CARTESIAN_POINT ( 'NONE',  ( -44.99999999999999289, 60.00000000000000000, -45.00000000000000711 ) ) ;
#215 = CARTESIAN_POINT ( 'NONE',  ( -24.99999999999999289, 60.00000000000000000, -15.00000000000000711 ) ) ;
#216 = VECTOR ( 'NONE', #254, 1000.000000000000000 ) ;
#217 = EDGE_CURVE ( 'NONE', #337, #266, #644, .T. ) ;
#218 = VECTOR ( 'NONE', #517, 1000.000000000000000 ) ;
#219 = DIRECTION ( 'NONE',  ( -0.7071067811865475727, 0.7071067811865474617, 0.000000000000000000 ) ) ;
#220 = CARTESIAN_POINT ( 'NONE',  ( 15.00000000000000000, 60.00000000000001421, -25.00000000000000000 ) ) ;
#221 = EDGE_LOOP ( 'NONE', ( #202, #187, #290 ) ) ;
#222 = DIRECTION ( 'NONE',  ( 0.000000000000000000, 0.000000000000000000, -1.000000000000000000 ) ) ;
#223 = UNCERTAINTY_MEASURE_WITH_UNIT (LENGTH_MEASURE( 1.000000000000000082E-05 ), #46, 'distance_accuracy_value', 'NONE');
#224 = LINE ( 'NONE', #491, #31 ) ;
#225 = ORIENTED_EDGE ( 'NONE', *, *, #82, .F. ) ;
#226 = CARTESIAN_POINT ( 'NONE',  ( 0.000000000000000000, 18.00000000000000355, 36.00000000000001421 ) ) ;
#227 = ADVANCED_FACE ( 'NONE', ( #341 ), #439, .F. ) ;
#228 = FACE_OUTER_BOUND ( 'NONE', #626, .T. ) ;
#229 = AXIS2_PLACEMENT_3D ( 'NONE', #129, #628, #23 ) ;
#230 = ORIENTED_EDGE ( 'NONE', *, *, #551, .F. ) ;
#231 = PLANE ( 'NONE',  #205 ) ;
#232 = VECTOR ( 'NONE', #222, 1000.000000000000000 ) ;
#233 = ADVANCED_FACE ( 'NONE', ( #579 ), #488, .F. ) ;
#234 = PLANE ( 'NONE',  #408 ) ;
#235 = ORIENTED_EDGE ( 'NONE', *, *, #556, .F. ) ;
#236 = B_SPLINE_CURVE_WITH_KNOTS ( 'NONE', 3,
 ( #523, #170, #423, #615 ),
 .UNSPECIFIED., .F., .F.,
 ( 4, 4 ),
 ( 0.000000000000000000, 1.000000000000000000 ),
 .UNSPECIFIED. ) ;
#237 = FACE_OUTER_BOUND ( 'NONE', #6, .T. ) ;
#238 = ORIENTED_EDGE ( 'NONE', *, *, #248, .F. ) ;
#239 = VECTOR ( 'NONE', #568, 1000.000000000000000 ) ;
#240 = PLANE ( 'NONE',  #59 ) ;
#241 = ORIENTED_EDGE ( 'NONE', *, *, #38, .F. ) ;
#242 = ADVANCED_FACE ( 'NONE', ( #237 ), #432, .T. ) ;
#243 = LINE ( 'NONE', #12, #185 ) ;
#244 = EDGE_LOOP ( 'NONE', ( #303, #468, #530 ) ) ;
#245 = LINE ( 'NONE', #490, #497 ) ;
#246 = VERTEX_POINT ( 'NONE', #436 ) ;
#247 = ADVANCED_BREP_SHAPE_REPRESENTATION ( '\X2\653e6837591a51f853f0\X0\step', ( #348, #367 ), #62 ) ;
#248 = EDGE_CURVE ( 'NONE', #21, #581, #379, .T. ) ;
#249 = CARTESIAN_POINT ( 'NONE',  ( 14.99999999999999645, 60.00000000000000000, 15.00000000000000178 ) ) ;
#250 = APPROVAL_DATE_TIME ( #4, #419 ) ;
#251 = LOCAL_TIME ( 12, 1, 3.000000000000000000, #555 ) ;
#252 = EDGE_CURVE ( 'NONE', #576, #415, #224, .T. ) ;
#253 = DIRECTION ( 'NONE',  ( -0.000000000000000000, 1.000000000000000000, -0.000000000000000000 ) ) ;
#254 = DIRECTION ( 'NONE',  ( -0.000000000000000000, -0.000000000000000000, 1.000000000000000000 ) ) ;
#255 = DIRECTION ( 'NONE',  ( -1.000000000000000000, 0.000000000000000000, -0.000000000000000000 ) ) ;
#256 = DIRECTION ( 'NONE',  ( 0.4472135954999579832, -0.8944271909999157444, 0.000000000000000000 ) ) ;
#257 = EDGE_LOOP ( 'NONE', ( #472, #48, #421 ) ) ;
#258 = EDGE_CURVE ( 'NONE', #547, #581, #153, .T. ) ;
#259 = APPROVAL_DATE_TIME ( #262, #87 ) ;
#260 = AXIS2_PLACEMENT_3D ( 'NONE', #390, #179, #344 ) ;
#261 = FACE_OUTER_BOUND ( 'NONE', #437, .T. ) ;
#262 = DATE_AND_TIME ( #465, #455 ) ;
#263 = AXIS2_PLACEMENT_3D ( 'NONE', #397, #509, #255 ) ;
#264 = CARTESIAN_POINT ( 'NONE',  ( 44.99999999999999289, 59.99999999999998579, 0.000000000000000000 ) ) ;
#265 = CARTESIAN_POINT ( 'NONE',  ( -44.99999999999998579, 60.00000000000000000, 15.00000000000000178 ) ) ;
#266 = VERTEX_POINT ( 'NONE', #632 ) ;
#267 = DIRECTION ( 'NONE',  ( -0.7071067811865476838, 0.7071067811865474617, 0.000000000000000000 ) ) ;
#268 = ADVANCED_FACE ( 'NONE', ( #228 ), #240, .F. ) ;
#269 = AXIS2_PLACEMENT_3D ( 'NONE', #420, #471, #511 ) ;
#270 = CARTESIAN_POINT ( 'NONE',  ( 15.00000000000000000, 60.00000000000001421, -35.00000000000000000 ) ) ;
#271 = EDGE_LOOP ( 'NONE', ( #44, #123, #89 ) ) ;
#272 = FACE_OUTER_BOUND ( 'NONE', #524, .T. ) ;
#273 = CC_DESIGN_DATE_AND_TIME_ASSIGNMENT ( #411, #356, ( #651 ) ) ;
#274 = SECURITY_CLASSIFICATION ( '', '', #354 ) ;
#275 = CARTESIAN_POINT ( 'NONE',  ( -44.99999999999999289, 0.000000000000000000, -45.00000000000000711 ) ) ;
#276 = ORIENTED_EDGE ( 'NONE', *, *, #301, .F. ) ;
#277 = DIRECTION ( 'NONE',  ( 0.000000000000000000, 0.000000000000000000, 1.000000000000000000 ) ) ;
#278 = CARTESIAN_POINT ( 'NONE',  ( 14.99999999999999645, 60.00000000000000000, -14.99999999999999822 ) ) ;
#279 = CARTESIAN_POINT ( 'NONE',  ( 52.49999999999998579, 52.49999999999999289, 15.00000000000000178 ) ) ;
#280 = DIRECTION ( 'NONE',  ( 0.000000000000000000, 0.000000000000000000, -1.000000000000000000 ) ) ;
#281 = ORIENTED_EDGE ( 'NONE', *, *, #449, .F. ) ;
#282 = VECTOR ( 'NONE', #392, 1000.000000000000000 ) ;
#283 = ADVANCED_FACE ( 'NONE', ( #186 ), #328, .F. ) ;
#284 = CARTESIAN_POINT ( 'NONE',  ( 45.00000000000000711, 60.00000000000000000, 15.00000000000000178 ) ) ;
#285 = CARTESIAN_POINT ( 'NONE',  ( 14.99999999999999645, 90.00000000000000000, 15.00000000000000178 ) ) ;
#286 = CC_DESIGN_SECURITY_CLASSIFICATION ( #274, ( #336 ) ) ;
#287 = ORIENTED_EDGE ( 'NONE', *, *, #38, .T. ) ;
#288 = CARTESIAN_POINT ( 'NONE',  ( -15.00000000000000355, 60.00000000000000000, 15.00000000000000178 ) ) ;
#289 = DIRECTION ( 'NONE',  ( 0.000000000000000000, 0.7071067811865474617, 0.7071067811865475727 ) ) ;
#290 = ORIENTED_EDGE ( 'NONE', *, *, #426, .T. ) ;
#291 = LINE ( 'NONE', #350, #605 ) ;
#292 = EDGE_CURVE ( 'NONE', #489, #10, #428, .T. ) ;
#293 = CARTESIAN_POINT ( 'NONE',  ( -15.00000000000000355, 60.00000000000000000, 15.00000000000000178 ) ) ;
#294 = ORIENTED_EDGE ( 'NONE', *, *, #413, .T. ) ;
#295 = DIRECTION ( 'NONE',  ( 1.000000000000000000, 0.000000000000000000, -0.000000000000000000 ) ) ;
#296 = DIRECTION ( 'NONE',  ( 1.000000000000000000, 0.000000000000000000, 0.000000000000000000 ) ) ;
#297 = EDGE_LOOP ( 'NONE', ( #503, #569, #641, #597 ) ) ;
#298 = PERSON_AND_ORGANIZATION_ROLE ( 'design_owner' ) ;
#299 = AXIS2_PLACEMENT_3D ( 'NONE', #643, #647, #594 ) ;
#300 = ORIENTED_EDGE ( 'NONE', *, *, #618, .T. ) ;
#301 = EDGE_CURVE ( 'NONE', #489, #576, #529, .T. ) ;
#302 = B_SPLINE_CURVE_WITH_KNOTS ( 'NONE', 3,
 ( #212, #58, #215, #117 ),
 .UNSPECIFIED., .F., .F.,
 ( 4, 4 ),
 ( 0.000000000000000000, 1.000000000000000000 ),
 .UNSPECIFIED. ) ;
#303 = ORIENTED_EDGE ( 'NONE', *, *, #502, .F. ) ;
#304 = PERSON_AND_ORGANIZATION_ROLE ( 'design_supplier' ) ;
#305 = CARTESIAN_POINT ( 'NONE',  ( -44.99999999999998579, 60.00000000000000000, 15.00000000000000178 ) ) ;
#306 = DATE_AND_TIME ( #154, #110 ) ;
#307 = CARTESIAN_POINT ( 'NONE',  ( -15.00000000000000355, 60.00000000000000000, -14.99999999999999822 ) ) ;
#308 = DATE_TIME_ROLE ( 'classification_date' ) ;
#309 = EDGE_CURVE ( 'NONE', #70, #360, #480, .T. ) ;
#310 = VERTEX_POINT ( 'NONE', #176 ) ;
#311 = PERSON_AND_ORGANIZATION ( #211, #80 ) ;
#312 = DIRECTION ( 'NONE',  ( 0.000000000000000000, 0.000000000000000000, 1.000000000000000000 ) ) ;
#313 = CARTESIAN_POINT ( 'NONE',  ( 52.49999999999998579, 52.49999999999999289, -14.99999999999999822 ) ) ;
#314 = DIRECTION ( 'NONE',  ( 0.000000000000000000, -0.000000000000000000, -1.000000000000000000 ) ) ;
#315 = AXIS2_PLACEMENT_3D ( 'NONE', #214, #377, #71 ) ;
#316 = EDGE_CURVE ( 'NONE', #635, #576, #383, .T. ) ;
#317 = PLANE ( 'NONE',  #607 ) ;
#318 = VECTOR ( 'NONE', #171, 1000.000000000000000 ) ;
#319 = CARTESIAN_POINT ( 'NONE',  ( -44.99999999999999289, 60.00000000000000000, 44.99999999999999289 ) ) ;
#320 = B_SPLINE_CURVE_WITH_KNOTS ( 'NONE', 3,
 ( #64, #434, #532, #165 ),
 .UNSPECIFIED., .F., .F.,
 ( 4, 4 ),
 ( 0.000000000000000000, 1.000000000000000000 ),
 .UNSPECIFIED. ) ;
#321 = LINE ( 'NONE', #525, #351 ) ;
#322 = CC_DESIGN_PERSON_AND_ORGANIZATION_ASSIGNMENT ( #197, #304, ( #336 ) ) ;
#323 = CARTESIAN_POINT ( 'NONE',  ( 14.99999999999999645, 60.00000000000000000, 15.00000000000000178 ) ) ;
#324 = ORIENTED_EDGE ( 'NONE', *, *, #389, .F. ) ;
#325 = DIRECTION ( 'NONE',  ( 0.000000000000000000, 0.8944271909999158554, -0.4472135954999578722 ) ) ;
#326 = PLANE ( 'NONE',  #99 ) ;
#327 = DIRECTION ( 'NONE',  ( -0.000000000000000000, 0.7071067811865476838, -0.7071067811865474617 ) ) ;
#328 = PLANE ( 'NONE',  #601 ) ;
#329 = EDGE_CURVE ( 'NONE', #337, #581, #588, .T. ) ;
#330 = ORIENTED_EDGE ( 'NONE', *, *, #631, .F. ) ;
#331 = FACE_OUTER_BOUND ( 'NONE', #53, .T. ) ;
#332 = PLANE ( 'NONE',  #349 ) ;
#333 = ORIENTED_EDGE ( 'NONE', *, *, #631, .T. ) ;
#334 = DIRECTION ( 'NONE',  ( -1.000000000000000000, 0.000000000000000000, -0.000000000000000000 ) ) ;
#335 = DIRECTION ( 'NONE',  ( -1.000000000000000000, 0.000000000000000000, 0.000000000000000000 ) ) ;
#336 = PRODUCT_DEFINITION_FORMATION_WITH_SPECIFIED_SOURCE ( 'ä»', '', #479, .NOT_KNOWN. ) ;
#337 = VERTEX_POINT ( 'NONE', #33 ) ;
#338 = VECTOR ( 'NONE', #61, 1000.000000000000114 ) ;
#339 = DIRECTION ( 'NONE',  ( 1.000000000000000000, 0.000000000000000000, 0.000000000000000000 ) ) ;
#340 = ADVANCED_FACE ( 'NONE', ( #637 ), #234, .T. ) ;
#341 = FACE_OUTER_BOUND ( 'NONE', #646, .T. ) ;
#342 = EDGE_LOOP ( 'NONE', ( #36, #225, #287 ) ) ;
#343 = CARTESIAN_POINT ( 'NONE',  ( 14.99999999999999645, 60.00000000000001421, 35.00000000000000000 ) ) ;
#344 = DIRECTION ( 'NONE',  ( -0.000000000000000000, 0.000000000000000000, 1.000000000000000000 ) ) ;
#345 = ORIENTED_EDGE ( 'NONE', *, *, #47, .T. ) ;
#346 = LINE ( 'NONE', #313, #591 ) ;
#347 = ORIENTED_EDGE ( 'NONE', *, *, #316, .T. ) ;
#348 = MANIFOLD_SOLID_BREP ( '\X2\52079664\X0\-\X2\653e6837\X0\4', #567 ) ;
#349 = AXIS2_PLACEMENT_3D ( 'NONE', #293, #546, #335 ) ;
#350 = CARTESIAN_POINT ( 'NONE',  ( -15.00000000000000355, 52.50000000000000711, -52.50000000000000000 ) ) ;
#351 = VECTOR ( 'NONE', #482, 1000.000000000000227 ) ;
#352 = CARTESIAN_POINT ( 'NONE',  ( -15.00000000000000355, 60.00000000000000000, -14.99999999999999822 ) ) ;
#353 = PRODUCT_RELATED_PRODUCT_CATEGORY ( 'detail', '', ( #479 ) ) ;
#354 = SECURITY_CLASSIFICATION_LEVEL ( 'unclassified' ) ;
#355 = CARTESIAN_POINT ( 'NONE',  ( -25.00000000000000711, 60.00000000000000711, 15.00000000000001066 ) ) ;
#356 = DATE_TIME_ROLE ( 'creation_date' ) ;
#357 = VECTOR ( 'NONE', #122, 1000.000000000000000 ) ;
#358 = EDGE_LOOP ( 'NONE', ( #164, #527, #45, #76 ) ) ;
#359 = CARTESIAN_POINT ( 'NONE',  ( 36.00000000000000711, 18.00000000000000711, 0.000000000000000000 ) ) ;
#360 = VERTEX_POINT ( 'NONE', #157 ) ;
#361 = CARTESIAN_POINT ( 'NONE',  ( 45.00000000000002132, 60.00000000000000000, -14.99999999999999822 ) ) ;
#362 = APPROVAL_DATE_TIME ( #306, #440 ) ;
#363 = CARTESIAN_POINT ( 'NONE',  ( -15.00000000000000355, 90.00000000000000000, 15.00000000000000178 ) ) ;
#364 = FACE_OUTER_BOUND ( 'NONE', #143, .T. ) ;
#365 = EDGE_CURVE ( 'NONE', #70, #310, #102, .T. ) ;
#366 = ORIENTED_EDGE ( 'NONE', *, *, #595, .F. ) ;
#367 = AXIS2_PLACEMENT_3D ( 'NONE', #438, #639, #451 ) ;
#368 = CARTESIAN_POINT ( 'NONE',  ( 44.99999999999999289, 59.99999999999998579, -14.99999999999999822 ) ) ;
#369 = ADVANCED_FACE ( 'NONE', ( #412 ), #564, .F. ) ;
#370 = EDGE_LOOP ( 'NONE', ( #92, #373, #366, #134 ) ) ;
#371 = PLANE ( 'NONE',  #315 ) ;
#372 = CARTESIAN_POINT ( 'NONE',  ( 14.99999999999999645, 60.00000000000000000, 15.00000000000000178 ) ) ;
#373 = ORIENTED_EDGE ( 'NONE', *, *, #131, .F. ) ;
#374 = CARTESIAN_POINT ( 'NONE',  ( 14.99999999999999645, 60.00000000000000000, -45.00000000000002842 ) ) ;
#375 = DIRECTION ( 'NONE',  ( -0.8944271909999158554, -0.4472135954999580942, 0.000000000000000000 ) ) ;
#376 = ORIENTED_EDGE ( 'NONE', *, *, #121, .F. ) ;
#377 = DIRECTION ( 'NONE',  ( 0.000000000000000000, 0.000000000000000000, 1.000000000000000000 ) ) ;
#378 = EDGE_CURVE ( 'NONE', #310, #10, #566, .T. ) ;
#379 = LINE ( 'NONE', #91, #431 ) ;
#380 = ORIENTED_EDGE ( 'NONE', *, *, #248, .T. ) ;
#381 = VECTOR ( 'NONE', #395, 1000.000000000000000 ) ;
#382 = CARTESIAN_POINT ( 'NONE',  ( 45.00000000000000711, 60.00000000000000000, 44.99999999999999289 ) ) ;
#383 = LINE ( 'NONE', #539, #501 ) ;
#384 = ORIENTED_EDGE ( 'NONE', *, *, #301, .T. ) ;
#385 = CARTESIAN_POINT ( 'NONE',  ( 0.000000000000000000, 18.00000000000000711, -36.00000000000000711 ) ) ;
#386 = B_SPLINE_CURVE_WITH_KNOTS ( 'NONE', 3,
 ( #114, #270, #220, #69 ),
 .UNSPECIFIED., .F., .F.,
 ( 4, 4 ),
 ( 0.000000000000000000, 1.000000000000000000 ),
 .UNSPECIFIED. ) ;
#387 = CARTESIAN_POINT ( 'NONE',  ( 0.000000000000000000, 52.50000000000000711, -52.50000000000000000 ) ) ;
#388 = EDGE_LOOP ( 'NONE', ( #118, #573, #67 ) ) ;
#389 = EDGE_CURVE ( 'NONE', #581, #177, #346, .T. ) ;
#390 = CARTESIAN_POINT ( 'NONE',  ( 14.99999999999999645, 60.00000000000000000, -14.99999999999999822 ) ) ;
#391 = ORIENTED_EDGE ( 'NONE', *, *, #131, .T. ) ;
#392 = DIRECTION ( 'NONE',  ( -0.000000000000000000, 1.000000000000000000, -0.000000000000000000 ) ) ;
#393 = ORIENTED_EDGE ( 'NONE', *, *, #396, .T. ) ;
#394 = DIRECTION ( 'NONE',  ( -0.4082482904638629062, -0.8164965809277260345, -0.4082482904638630727 ) ) ;
#395 = DIRECTION ( 'NONE',  ( 1.000000000000000000, 0.000000000000000000, -0.000000000000000000 ) ) ;
#396 = EDGE_CURVE ( 'NONE', #21, #246, #243, .T. ) ;
#397 = CARTESIAN_POINT ( 'NONE',  ( -44.99999999999999289, 60.00000000000000000, 44.99999999999999289 ) ) ;
#398 = APPROVAL_PERSON_ORGANIZATION ( #614, #440, #209 ) ;
#399 = PERSON_AND_ORGANIZATION ( #211, #80 ) ;
#400 = AXIS2_PLACEMENT_3D ( 'NONE', #385, #169, #120 ) ;
#401 = VECTOR ( 'NONE', #394, 1000.000000000000227 ) ;
#402 = ORIENTED_EDGE ( 'NONE', *, *, #47, .F. ) ;
#403 = COORDINATED_UNIVERSAL_TIME_OFFSET ( 8, 0, .AHEAD. ) ;
#404 = CARTESIAN_POINT ( 'NONE',  ( 35.00000000000000000, 60.00000000000000711, 15.00000000000001599 ) ) ;
#405 = EDGE_CURVE ( 'NONE', #266, #415, #200, .T. ) ;
#406 = ORIENTED_EDGE ( 'NONE', *, *, #258, .T. ) ;
#407 = LINE ( 'NONE', #416, #218 ) ;
#408 = AXIS2_PLACEMENT_3D ( 'NONE', #387, #83, #289 ) ;
#409 = VECTOR ( 'NONE', #327, 1000.000000000000000 ) ;
#410 = CARTESIAN_POINT ( 'NONE',  ( -15.00000000000000355, 90.00000000000000000, -14.99999999999999822 ) ) ;
#411 = DATE_AND_TIME ( #57, #577 ) ;
#412 = FACE_OUTER_BOUND ( 'NONE', #481, .T. ) ;
#413 = EDGE_CURVE ( 'NONE', #447, #177, #5, .T. ) ;
#414 = LINE ( 'NONE', #275, #35 ) ;
#415 = VERTEX_POINT ( 'NONE', #203 ) ;
#416 = CARTESIAN_POINT ( 'NONE',  ( 14.99999999999999645, 60.00000000000000000, 15.00000000000000178 ) ) ;
#417 = APPLICATION_CONTEXT ( 'configuration controlled 3d designs of mechanical parts and assemblies' ) ;
#418 = VECTOR ( 'NONE', #182, 1000.000000000000114 ) ;
#419 = APPROVAL ( #563, 'æœª' ) ;
#420 = CARTESIAN_POINT ( 'NONE',  ( 52.49999999999998579, 52.49999999999999289, 0.000000000000000000 ) ) ;
#421 = ORIENTED_EDGE ( 'NONE', *, *, #199, .T. ) ;
#422 = DIRECTION ( 'NONE',  ( -0.7071067811865474617, -0.7071067811865476838, 0.000000000000000000 ) ) ;
#423 = CARTESIAN_POINT ( 'NONE',  ( -14.99999999999998579, 60.00000000000001421, -35.00000000000000000 ) ) ;
#424 = FACE_OUTER_BOUND ( 'NONE', #244, .T. ) ;
#425 = DIRECTION ( 'NONE',  ( 0.000000000000000000, 0.000000000000000000, -1.000000000000000000 ) ) ;
#426 = EDGE_CURVE ( 'NONE', #24, #337, #407, .T. ) ;
#427 = CARTESIAN_POINT ( 'NONE',  ( -15.00000000000000355, 60.00000000000000000, -45.00000000000000000 ) ) ;
#428 = LINE ( 'NONE', #126, #282 ) ;
#429 = ORIENTED_EDGE ( 'NONE', *, *, #103, .F. ) ;
#430 = DIRECTION ( 'NONE',  ( -1.000000000000000000, 0.000000000000000000, 0.000000000000000000 ) ) ;
#431 = VECTOR ( 'NONE', #542, 1000.000000000000000 ) ;
#432 = PLANE ( 'NONE',  #229 ) ;
#433 = VERTEX_POINT ( 'NONE', #586 ) ;
#434 = CARTESIAN_POINT ( 'NONE',  ( 25.00000000000000000, 60.00000000000000711, -14.99999999999999645 ) ) ;
#435 = ADVANCED_FACE ( 'NONE', ( #478 ), #317, .T. ) ;
#436 = CARTESIAN_POINT ( 'NONE',  ( 45.00000000000000711, -6.938893903907228378E-15, -45.00000000000000711 ) ) ;
#437 = EDGE_LOOP ( 'NONE', ( #498, #589, #380 ) ) ;
#438 = CARTESIAN_POINT ( 'NONE',  ( 0.000000000000000000, 0.000000000000000000, 0.000000000000000000 ) ) ;
#439 = PLANE ( 'NONE',  #260 ) ;
#440 = APPROVAL ( #560, 'æœª' ) ;
#441 = ORIENTED_EDGE ( 'NONE', *, *, #329, .F. ) ;
#442 = CARTESIAN_POINT ( 'NONE',  ( -52.49999999999998579, 52.49999999999997158, 15.00000000000000178 ) ) ;
#443 = DIRECTION ( 'NONE',  ( 0.000000000000000000, -1.000000000000000000, 0.000000000000000000 ) ) ;
#444 = ORIENTED_EDGE ( 'NONE', *, *, #168, .F. ) ;
#445 = LINE ( 'NONE', #41, #8 ) ;
#446 = DESIGN_CONTEXT ( 'detailed design', #453, 'design' ) ;
#447 = VERTEX_POINT ( 'NONE', #284 ) ;
#448 = DIRECTION ( 'NONE',  ( 0.8944271909999159664, -0.4472135954999578167, 0.000000000000000000 ) ) ;
#449 = EDGE_CURVE ( 'NONE', #70, #433, #620, .T. ) ;
#450 = CARTESIAN_POINT ( 'NONE',  ( -15.00000000000000355, 90.00000000000000000, 15.00000000000000178 ) ) ;
#451 = DIRECTION ( 'NONE',  ( 1.000000000000000000, 0.000000000000000000, 0.000000000000000000 ) ) ;
#452 = VECTOR ( 'NONE', #140, 1000.000000000000114 ) ;
#453 = APPLICATION_CONTEXT ( 'configuration controlled 3d designs of mechanical parts and assemblies' ) ;
#454 = CARTESIAN_POINT ( 'NONE',  ( -44.99999999999998579, 60.00000000000000000, -14.99999999999999822 ) ) ;
#455 = LOCAL_TIME ( 12, 1, 3.000000000000000000, #604 ) ;
#456 = PERSON_AND_ORGANIZATION_ROLE ( 'creator' ) ;
#457 = ADVANCED_FACE ( 'NONE', ( #15 ), #74, .F. ) ;
#458 = ORIENTED_EDGE ( 'NONE', *, *, #405, .F. ) ;
#459 = DIRECTION ( 'NONE',  ( 0.4082482904638630727, -0.8164965809277260345, -0.4082482904638630172 ) ) ;
#460 = ORIENTED_EDGE ( 'NONE', *, *, #495, .F. ) ;
#461 = APPROVAL_ROLE ( '' ) ;
#462 = LINE ( 'NONE', #500, #401 ) ;
#463 = APPROVAL_STATUS ( 'not_yet_approved' ) ;
#464 = LINE ( 'NONE', #265, #201 ) ;
#465 = CALENDAR_DATE ( 2026, 20, 9 ) ;
#466 = ADVANCED_FACE ( 'NONE', ( #629 ), #371, .F. ) ;
#467 = DIRECTION ( 'NONE',  ( -1.034389230519697050E-16, -0.8944271909999158554, 0.4472135954999578167 ) ) ;
#468 = ORIENTED_EDGE ( 'NONE', *, *, #60, .T. ) ;
#469 = CARTESIAN_POINT ( 'NONE',  ( -44.99999999999997868, 59.99999999999998579, 0.000000000000000000 ) ) ;
#470 = AXIS2_PLACEMENT_3D ( 'NONE', #617, #375, #106 ) ;
#471 = DIRECTION ( 'NONE',  ( 0.7071067811865474617, 0.7071067811865475727, 0.000000000000000000 ) ) ;
#472 = ORIENTED_EDGE ( 'NONE', *, *, #396, .F. ) ;
#473 = PLANE ( 'NONE',  #146 ) ;
#474 = FACE_OUTER_BOUND ( 'NONE', #192, .T. ) ;
#475 = EDGE_CURVE ( 'NONE', #21, #177, #320, .T. ) ;
#476 = DIRECTION ( 'NONE',  ( 0.000000000000000000, 0.8944271909999159664, -0.4472135954999578722 ) ) ;
#477 = PLANE ( 'NONE',  #606 ) ;
#478 = FACE_OUTER_BOUND ( 'NONE', #358, .T. ) ;
#479 = PRODUCT ( '\X2\653e6837591a51f853f0\X0\step', '\X2\653e6837591a51f853f0\X0\step', '', ( #193 ) ) ;
#480 = LINE ( 'NONE', #27, #418 ) ;
#481 = EDGE_LOOP ( 'NONE', ( #130, #138, #393 ) ) ;
#482 = DIRECTION ( 'NONE',  ( 0.4082482904638631283, -0.8164965809277260345, 0.4082482904638629617 ) ) ;
#483 = ADVANCED_FACE ( 'NONE', ( #331 ), #77, .F. ) ;
#484 = CC_DESIGN_APPROVAL ( #419, ( #336 ) ) ;
#485 = DIRECTION ( 'NONE',  ( 0.000000000000000000, 0.000000000000000000, -1.000000000000000000 ) ) ;
#486 = ORIENTED_EDGE ( 'NONE', *, *, #217, .F. ) ;
#487 =( NAMED_UNIT ( * ) PLANE_ANGLE_UNIT ( ) SI_UNIT ( $, .RADIAN. ) );
#488 = PLANE ( 'NONE',  #513 ) ;
#489 = VERTEX_POINT ( 'NONE', #116 ) ;
#490 = CARTESIAN_POINT ( 'NONE',  ( 0.000000000000000000, 60.00000000000000000, -45.00000000000000711 ) ) ;
#491 = CARTESIAN_POINT ( 'NONE',  ( -44.99999999999999289, 0.000000000000000000, 44.99999999999999289 ) ) ;
#492 = VERTEX_POINT ( 'NONE', #427 ) ;
#493 = DIRECTION ( 'NONE',  ( 0.4472135954999578167, 0.8944271909999159664, 0.000000000000000000 ) ) ;
#494 = ORIENTED_EDGE ( 'NONE', *, *, #82, .T. ) ;
#495 = EDGE_CURVE ( 'NONE', #24, #415, #321, .T. ) ;
#496 = CARTESIAN_POINT ( 'NONE',  ( -15.00000000000000355, 60.00000000000000000, 45.00000000000000000 ) ) ;
#497 = VECTOR ( 'NONE', #334, 1000.000000000000000 ) ;
#498 = ORIENTED_EDGE ( 'NONE', *, *, #389, .T. ) ;
#499 = PLANE ( 'NONE',  #93 ) ;
#500 = CARTESIAN_POINT ( 'NONE',  ( -15.00000000000000355, 60.00000000000000000, -14.99999999999999822 ) ) ;
#501 = VECTOR ( 'NONE', #583, 1000.000000000000114 ) ;
#502 = EDGE_CURVE ( 'NONE', #447, #415, #30, .T. ) ;
#503 = ORIENTED_EDGE ( 'NONE', *, *, #551, .T. ) ;
#504 = AXIS2_PLACEMENT_3D ( 'NONE', #359, #189, #256 ) ;
#505 = VECTOR ( 'NONE', #210, 1000.000000000000000 ) ;
#506 = PLANE ( 'NONE',  #263 ) ;
#507 = CARTESIAN_POINT ( 'NONE',  ( -52.49999999999998579, 52.49999999999997158, -14.99999999999999822 ) ) ;
#508 = PRODUCT_DEFINITION_SHAPE ( 'NONE', 'NONE',  #651 ) ;
#509 = DIRECTION ( 'NONE',  ( 0.000000000000000000, 0.000000000000000000, -1.000000000000000000 ) ) ;
#510 = PERSON_AND_ORGANIZATION_ROLE ( 'creator' ) ;
#511 = DIRECTION ( 'NONE',  ( -0.7071067811865475727, 0.7071067811865474617, 0.000000000000000000 ) ) ;
#512 = ADVANCED_FACE ( 'NONE', ( #272 ), #473, .F. ) ;
#513 = AXIS2_PLACEMENT_3D ( 'NONE', #137, #75, #39 ) ;
#514 = DIRECTION ( 'NONE',  ( 0.7071067811865475727, -0.7071067811865474617, 0.000000000000000000 ) ) ;
#515 = VECTOR ( 'NONE', #136, 1000.000000000000114 ) ;
#516 = LINE ( 'NONE', #208, #554 ) ;
#517 = DIRECTION ( 'NONE',  ( -0.000000000000000000, 1.000000000000000000, -0.000000000000000000 ) ) ;
#518 = DIRECTION ( 'NONE',  ( 2.068778461039394347E-16, -0.8944271909999157444, -0.4472135954999580387 ) ) ;
#519 = ORIENTED_EDGE ( 'NONE', *, *, #595, .T. ) ;
#520 = CARTESIAN_POINT ( 'NONE',  ( 45.00000000000000711, 60.00000000000000000, 15.00000000000000178 ) ) ;
#521 = AXIS2_PLACEMENT_3D ( 'NONE', #319, #9, #425 ) ;
#522 = EDGE_CURVE ( 'NONE', #447, #337, #128, .T. ) ;
#523 = CARTESIAN_POINT ( 'NONE',  ( -15.00000000000000355, 60.00000000000000000, -14.99999999999999822 ) ) ;
#524 = EDGE_LOOP ( 'NONE', ( #190, #241, #376 ) ) ;
#525 = CARTESIAN_POINT ( 'NONE',  ( 14.99999999999999645, 60.00000000000000000, 15.00000000000000178 ) ) ;
#526 = PLANE ( 'NONE',  #119 ) ;
#527 = ORIENTED_EDGE ( 'NONE', *, *, #378, .F. ) ;
#528 = FACE_OUTER_BOUND ( 'NONE', #257, .T. ) ;
#529 = LINE ( 'NONE', #596, #452 ) ;
#530 = ORIENTED_EDGE ( 'NONE', *, *, #495, .T. ) ;
#531 = ADVANCED_FACE ( 'NONE', ( #424 ), #231, .F. ) ;
#532 = CARTESIAN_POINT ( 'NONE',  ( 35.00000000000000711, 60.00000000000000711, -14.99999999999999645 ) ) ;
#533 = DIRECTION ( 'NONE',  ( 1.000000000000000000, 0.000000000000000000, 0.000000000000000000 ) ) ;
#534 = ORIENTED_EDGE ( 'NONE', *, *, #95, .F. ) ;
#535 = B_SPLINE_CURVE_WITH_KNOTS ( 'NONE', 3,
 ( #550, #599, #98, #652 ),
 .UNSPECIFIED., .F., .F.,
 ( 4, 4 ),
 ( 0.000000000000000000, 1.000000000000000000 ),
 .UNSPECIFIED. ) ;
#536 = CC_DESIGN_PERSON_AND_ORGANIZATION_ASSIGNMENT ( #311, #510, ( #651 ) ) ;
#537 = FACE_OUTER_BOUND ( 'NONE', #593, .T. ) ;
#538 = LOCAL_TIME ( 12, 1, 3.000000000000000000, #152 ) ;
#539 = CARTESIAN_POINT ( 'NONE',  ( -15.00000000000000355, 60.00000000000000000, 45.00000000000000000 ) ) ;
#540 = ORIENTED_EDGE ( 'NONE', *, *, #13, .F. ) ;
#541 = DIRECTION ( 'NONE',  ( -0.7071067811865474617, -0.7071067811865476838, 0.000000000000000000 ) ) ;
#542 = DIRECTION ( 'NONE',  ( -0.000000000000000000, 1.000000000000000000, -0.000000000000000000 ) ) ;
#543 = EDGE_LOOP ( 'NONE', ( #50, #519, #610, #444 ) ) ;
#544 = CARTESIAN_POINT ( 'NONE',  ( 14.99999999999999645, 90.00000000000000000, -14.99999999999999822 ) ) ;
#545 = ADVANCED_FACE ( 'NONE', ( #627 ), #178, .F. ) ;
#546 = DIRECTION ( 'NONE',  ( -0.000000000000000000, 0.000000000000000000, -1.000000000000000000 ) ) ;
#547 = VERTEX_POINT ( 'NONE', #374 ) ;
#548 = ORIENTED_EDGE ( 'NONE', *, *, #252, .F. ) ;
#549 = CARTESIAN_POINT ( 'NONE',  ( 14.99999999999999645, 60.00000000000000000, 45.00000000000000711 ) ) ;
#550 = CARTESIAN_POINT ( 'NONE',  ( -15.00000000000000355, 60.00000000000000000, 45.00000000000000000 ) ) ;
#551 = EDGE_CURVE ( 'NONE', #415, #246, #574, .T. ) ;
#552 = PERSON_AND_ORGANIZATION ( #211, #80 ) ;
#553 = CARTESIAN_POINT ( 'NONE',  ( -35.00000000000000000, 60.00000000000000711, 15.00000000000001066 ) ) ;
#554 = VECTOR ( 'NONE', #72, 1000.000000000000114 ) ;
#555 = COORDINATED_UNIVERSAL_TIME_OFFSET ( 8, 0, .AHEAD. ) ;
#556 = EDGE_CURVE ( 'NONE', #635, #10, #578, .T. ) ;
#557 = ORIENTED_EDGE ( 'NONE', *, *, #316, .F. ) ;
#558 = CC_DESIGN_APPROVAL ( #440, ( #274 ) ) ;
#559 = DIRECTION ( 'NONE',  ( 0.000000000000000000, 0.000000000000000000, -1.000000000000000000 ) ) ;
#560 = APPROVAL_STATUS ( 'not_yet_approved' ) ;
#561 = ADVANCED_FACE ( 'NONE', ( #528 ), #81, .F. ) ;
#562 = DIRECTION ( 'NONE',  ( 1.000000000000000000, 0.000000000000000000, 0.000000000000000000 ) ) ;
#563 = APPROVAL_STATUS ( 'not_yet_approved' ) ;
#564 = PLANE ( 'NONE',  #504 ) ;
#565 = DIRECTION ( 'NONE',  ( 0.000000000000000000, -1.000000000000000000, 0.000000000000000000 ) ) ;
#566 = LINE ( 'NONE', #363, #216 ) ;
#567 = CLOSED_SHELL ( 'NONE', ( #457, #466, #160, #25, #175, #268, #435, #242, #340, #112, #227, #188, #73, #3, #283, #512, #642, #207, #483, #602, #107, #531, #369, #561, #545, #233 ) ) ;
#568 = DIRECTION ( 'NONE',  ( -1.000000000000000000, -0.000000000000000000, -0.000000000000000000 ) ) ;
#569 = ORIENTED_EDGE ( 'NONE', *, *, #199, .F. ) ;
#570 = EDGE_CURVE ( 'NONE', #24, #266, #97, .T. ) ;
#571 = DIRECTION ( 'NONE',  ( 0.000000000000000000, -0.4472135954999579277, -0.8944271909999159664 ) ) ;
#572 = FACE_OUTER_BOUND ( 'NONE', #388, .T. ) ;
#573 = ORIENTED_EDGE ( 'NONE', *, *, #52, .F. ) ;
#574 = LINE ( 'NONE', #22, #232 ) ;
#575 = FACE_OUTER_BOUND ( 'NONE', #43, .T. ) ;
#576 = VERTEX_POINT ( 'NONE', #132 ) ;
#577 = LOCAL_TIME ( 12, 1, 3.000000000000000000, #403 ) ;
#578 = LINE ( 'NONE', #124, #409 ) ;
#579 = FACE_OUTER_BOUND ( 'NONE', #85, .T. ) ;
#580 = AXIS2_PLACEMENT_3D ( 'NONE', #226, #571, #325 ) ;
#581 = VERTEX_POINT ( 'NONE', #544 ) ;
#582 = DIRECTION ( 'NONE',  ( 0.000000000000000000, 0.000000000000000000, 1.000000000000000000 ) ) ;
#583 = DIRECTION ( 'NONE',  ( -0.4472135954999578167, -0.8944271909999159664, -1.034389230519697173E-16 ) ) ;
#584 = EDGE_CURVE ( 'NONE', #10, #433, #191, .T. ) ;
#585 = ORIENTED_EDGE ( 'NONE', *, *, #292, .F. ) ;
#586 = CARTESIAN_POINT ( 'NONE',  ( -44.99999999999998579, 60.00000000000000000, 15.00000000000000178 ) ) ;
#587 = VECTOR ( 'NONE', #518, 1000.000000000000114 ) ;
#588 = LINE ( 'NONE', #285, #213 ) ;
#589 = ORIENTED_EDGE ( 'NONE', *, *, #475, .F. ) ;
#590 = APPLICATION_PROTOCOL_DEFINITION ( 'international standard', 'config_control_design', 1994, #417 ) ;
#591 = VECTOR ( 'NONE', #514, 1000.000000000000000 ) ;
#592 = DIRECTION ( 'NONE',  ( 0.000000000000000000, -0.7071067811865476838, 0.7071067811865474617 ) ) ;
#593 = EDGE_LOOP ( 'NONE', ( #150, #585, #402 ) ) ;
#594 = DIRECTION ( 'NONE',  ( 0.000000000000000000, -0.8944271909999158554, -0.4472135954999579832 ) ) ;
#595 = EDGE_CURVE ( 'NONE', #547, #492, #245, .T. ) ;
#596 = CARTESIAN_POINT ( 'NONE',  ( -15.00000000000000355, 60.00000000000000000, 15.00000000000000178 ) ) ;
#597 = ORIENTED_EDGE ( 'NONE', *, *, #502, .T. ) ;
#598 = CARTESIAN_POINT ( 'NONE',  ( 0.000000000000000000, 59.99999999999998579, 44.99999999999999289 ) ) ;
#599 = CARTESIAN_POINT ( 'NONE',  ( -15.00000000000001066, 60.00000000000001421, 35.00000000000000711 ) ) ;
#600 = LINE ( 'NONE', #184, #515 ) ;
#601 = AXIS2_PLACEMENT_3D ( 'NONE', #640, #296, #280 ) ;
#602 = ADVANCED_FACE ( 'NONE', ( #86 ), #144, .F. ) ;
#603 = LINE ( 'NONE', #352, #634 ) ;
#604 = COORDINATED_UNIVERSAL_TIME_OFFSET ( 8, 0, .AHEAD. ) ;
#605 = VECTOR ( 'NONE', #96, 1000.000000000000000 ) ;
#606 = AXIS2_PLACEMENT_3D ( 'NONE', #372, #158, #312 ) ;
#607 = AXIS2_PLACEMENT_3D ( 'NONE', #26, #267, #422 ) ;
#608 = EDGE_LOOP ( 'NONE', ( #141, #458, #619, #347 ) ) ;
#609 = APPLICATION_PROTOCOL_DEFINITION ( 'international standard', 'config_control_design', 1994, #453 ) ;
#610 = ORIENTED_EDGE ( 'NONE', *, *, #612, .F. ) ;
#611 = ORIENTED_EDGE ( 'NONE', *, *, #13, .T. ) ;
#612 = EDGE_CURVE ( 'NONE', #310, #492, #291, .T. ) ;
#613 = FACE_OUTER_BOUND ( 'NONE', #221, .T. ) ;
#614 = PERSON_AND_ORGANIZATION ( #211, #80 ) ;
#615 = CARTESIAN_POINT ( 'NONE',  ( -15.00000000000000355, 60.00000000000000000, -45.00000000000000000 ) ) ;
#616 = ORIENTED_EDGE ( 'NONE', *, *, #168, .T. ) ;
#617 = CARTESIAN_POINT ( 'NONE',  ( 36.00000000000000711, 18.00000000000001066, 0.000000000000000000 ) ) ;
#618 = EDGE_CURVE ( 'NONE', #635, #266, #90, .T. ) ;
#619 = ORIENTED_EDGE ( 'NONE', *, *, #618, .F. ) ;
#620 = LINE ( 'NONE', #469, #318 ) ;
#621 = LINE ( 'NONE', #161, #357 ) ;
#622 = CC_DESIGN_DATE_AND_TIME_ASSIGNMENT ( #54, #308, ( #274 ) ) ;
#623 = ORIENTED_EDGE ( 'NONE', *, *, #378, .T. ) ;
#624 = DIRECTION ( 'NONE',  ( 0.000000000000000000, -0.4472135954999578722, -0.8944271909999159664 ) ) ;
#625 = PLANE ( 'NONE',  #269 ) ;
#626 = EDGE_LOOP ( 'NONE', ( #645, #616, #623, #333 ) ) ;
#627 = FACE_OUTER_BOUND ( 'NONE', #40, .T. ) ;
#628 = DIRECTION ( 'NONE',  ( 0.000000000000000000, 0.7071067811865474617, 0.7071067811865476838 ) ) ;
#629 = FACE_OUTER_BOUND ( 'NONE', #370, .T. ) ;
#630 = VECTOR ( 'NONE', #42, 1000.000000000000000 ) ;
#631 = EDGE_CURVE ( 'NONE', #10, #337, #445, .T. ) ;
#632 = CARTESIAN_POINT ( 'NONE',  ( 14.99999999999999645, 60.00000000000000000, 45.00000000000000711 ) ) ;
#633 = AXIS2_PLACEMENT_3D ( 'NONE', #139, #448, #493 ) ;
#634 = VECTOR ( 'NONE', #253, 1000.000000000000000 ) ;
#635 = VERTEX_POINT ( 'NONE', #496 ) ;
#636 = CARTESIAN_POINT ( 'NONE',  ( 0.000000000000000000, 18.00000000000000355, 36.00000000000001421 ) ) ;
#637 = FACE_OUTER_BOUND ( 'NONE', #543, .T. ) ;
#638 = ORIENTED_EDGE ( 'NONE', *, *, #570, .T. ) ;
#639 = DIRECTION ( 'NONE',  ( 0.000000000000000000, 0.000000000000000000, 1.000000000000000000 ) ) ;
#640 = CARTESIAN_POINT ( 'NONE',  ( -15.00000000000000355, 60.00000000000000000, -14.99999999999999822 ) ) ;
#641 = ORIENTED_EDGE ( 'NONE', *, *, #413, .F. ) ;
#642 = ADVANCED_FACE ( 'NONE', ( #537 ), #499, .F. ) ;
#643 = CARTESIAN_POINT ( 'NONE',  ( 0.000000000000000000, 18.00000000000000355, -36.00000000000000000 ) ) ;
#644 = LINE ( 'NONE', #133, #145 ) ;
#645 = ORIENTED_EDGE ( 'NONE', *, *, #329, .T. ) ;
#646 = EDGE_LOOP ( 'NONE', ( #406, #238, #534 ) ) ;
#647 = DIRECTION ( 'NONE',  ( 0.000000000000000000, -0.4472135954999579832, 0.8944271909999158554 ) ) ;
#648 = EDGE_CURVE ( 'NONE', #547, #246, #600, .T. ) ;
#649 = CARTESIAN_POINT ( 'NONE',  ( 14.99999999999999645, 60.00000000000000000, -14.99999999999999822 ) ) ;
#650 = CARTESIAN_POINT ( 'NONE',  ( 14.99999999999999645, 60.00000000000000000, 15.00000000000000178 ) ) ;
#651 = PRODUCT_DEFINITION ( 'æœ', '', #336, #446 ) ;
#652 = CARTESIAN_POINT ( 'NONE',  ( -15.00000000000000355, 60.00000000000000000, 15.00000000000000178 ) ) ;
#653 = PERSON_AND_ORGANIZATION ( #211, #80 ) ;
ENDSEC;
END-ISO-10303-21;
